#define rood_width 16
#define rood_height 16
static unsigned char rood_bits[] = {
   0x04, 0x20, 0x04, 0x20, 0xf3, 0xcf, 0x1c, 0x38, 0x04, 0x20, 0x04, 0x20,
   0x04, 0x20, 0x74, 0x2e, 0x04, 0x20, 0x1c, 0x38, 0x10, 0x08, 0x50, 0x0a,
   0x10, 0x08, 0x13, 0xc8, 0xa4, 0x25, 0x04, 0x20 };
