#define haha_width 16
#define haha_height 16
static unsigned char haha_bits[] = {
   0x02, 0x40, 0x03, 0xc0, 0xf0, 0x0f, 0xfc, 0x3f, 0xfc, 0x3f, 0x8c, 0x31,
   0x8c, 0x31, 0xfc, 0x3f, 0xfc, 0x3f, 0xfc, 0x3f, 0xf0, 0x0f, 0xf0, 0x0f,
   0xb0, 0x0d, 0xb0, 0x0d, 0x03, 0xc0, 0x02, 0x40 };
