#define donkeroranje_width 16
#define donkeroranje_height 16
static unsigned char donkeroranje_bits[] = {
   0x00, 0x00, 0x00, 0x00, 0x00, 0x00, 0x00, 0x00, 0x00, 0x00, 0xff, 0x1f,
   0x00, 0x20, 0x00, 0x40, 0x00, 0x40, 0x00, 0x20, 0xff, 0x1f, 0x00, 0x00,
   0x00, 0x00, 0x00, 0x00, 0x00, 0x00, 0x00, 0x00 };
