#define rood_width 16
#define rood_height 16
static unsigned char rood_bits[] = {
   0x00, 0x00, 0x00, 0x00, 0x00, 0x00, 0x00, 0x00, 0xff, 0x1f, 0x00, 0x20,
   0x00, 0x40, 0x00, 0x80, 0x00, 0x80, 0x00, 0x40, 0x00, 0x20, 0xff, 0x1f,
   0x00, 0x00, 0x00, 0x00, 0x00, 0x00, 0x00, 0x00 };
