#define donkeroranje_width 16
#define donkeroranje_height 16
static unsigned char donkeroranje_bits[] = {
   0x00, 0x00, 0x80, 0x01, 0x40, 0x02, 0x20, 0x04, 0x20, 0x04, 0x20, 0x04,
   0x20, 0x04, 0x20, 0x04, 0x20, 0x04, 0x20, 0x04, 0x20, 0x04, 0x20, 0x04,
   0x20, 0x04, 0x20, 0x04, 0x20, 0x04, 0x20, 0x04 };
