#define rood_width 16
#define rood_height 16
static unsigned char rood_bits[] = {
   0xf0, 0x03, 0x08, 0x04, 0x00, 0x00, 0x00, 0x00, 0x00, 0x00, 0x00, 0x00,
   0x00, 0x00, 0x00, 0x00, 0x00, 0x00, 0xe0, 0x00, 0xf0, 0x00, 0xd0, 0x00,
   0xc0, 0x00, 0xc0, 0x00, 0x08, 0x00, 0x00, 0x00 };
