#define zwart_width 16
#define zwart_height 16
static unsigned char zwart_bits[] = {
   0x00, 0x00, 0xf0, 0x03, 0x18, 0x06, 0x08, 0x04, 0x88, 0x0c, 0x08, 0x08,
   0x18, 0x04, 0x30, 0x03, 0x20, 0x01, 0x10, 0x01, 0x08, 0x01, 0x28, 0x01,
   0x38, 0x01, 0x20, 0x01, 0x20, 0x01, 0x60, 0x01 };
