#define oranje_width 16
#define oranje_height 16
static unsigned char oranje_bits[] = {
   0x20, 0x04, 0x20, 0x04, 0x20, 0x04, 0x10, 0x08, 0x08, 0x10, 0x07, 0xe0,
   0x00, 0x00, 0x00, 0x00, 0x00, 0x00, 0x00, 0x00, 0x07, 0xe0, 0x08, 0x10,
   0x10, 0x08, 0x20, 0x04, 0x20, 0x04, 0x20, 0x04 };
