#define lichtoranje_width 16
#define lichtoranje_height 16
static unsigned char lichtoranje_bits[] = {
   0x40, 0x02, 0x40, 0x02, 0x40, 0x02, 0x60, 0x06, 0x30, 0x0c, 0x18, 0x18,
   0x0f, 0xf0, 0x00, 0x00, 0x00, 0x00, 0x0f, 0xf0, 0x18, 0x18, 0x30, 0x0c,
   0x60, 0x06, 0x40, 0x02, 0x40, 0x02, 0x40, 0x02 };
