#define rand_width 16
#define rand_height 16
static unsigned char rand_bits[] = {
   0x10, 0x08, 0x10, 0x08, 0x18, 0x18, 0x0c, 0x30, 0x07, 0xe0, 0x00, 0x00,
   0x00, 0x00, 0x00, 0x00, 0x00, 0x00, 0x00, 0x00, 0x00, 0x00, 0x07, 0xe0,
   0x0c, 0x30, 0x18, 0x18, 0x10, 0x08, 0x10, 0x08 };
