#define huid_width 16
#define huid_height 16
static unsigned char huid_bits[] = {
   0x00, 0x00, 0x00, 0x00, 0xe0, 0x07, 0x90, 0x09, 0x90, 0x09, 0xf0, 0x0f,
   0xe0, 0x07, 0x00, 0x00, 0x80, 0x01, 0x80, 0x01, 0x00, 0x00, 0x00, 0x00,
   0x00, 0x00, 0x02, 0x40, 0x02, 0x40, 0x00, 0x00 };
