#define lichtoranje_width 16
#define lichtoranje_height 16
static unsigned char lichtoranje_bits[] = {
   0x40, 0x02, 0x40, 0x02, 0x40, 0x02, 0x40, 0x02, 0x40, 0x02, 0x40, 0x02,
   0x40, 0x02, 0x40, 0x02, 0x40, 0x02, 0x40, 0x02, 0x40, 0x02, 0x40, 0x02,
   0x40, 0x02, 0x40, 0x02, 0x40, 0x02, 0x40, 0x02 };
