#define rood_width 16
#define rood_height 16
static unsigned char rood_bits[] = {
   0xf8, 0x1f, 0xf8, 0x1f, 0xf0, 0x0f, 0xe0, 0x07, 0x00, 0x00, 0x00, 0x00,
   0x00, 0x00, 0x00, 0x00, 0x00, 0x00, 0x00, 0x00, 0xf8, 0x1f, 0xfc, 0x3f,
   0xf0, 0x0f, 0xf0, 0x0f, 0x00, 0x00, 0x05, 0xa0 };
