#define huid_width 16
#define huid_height 16
static unsigned char huid_bits[] = {
   0x00, 0x00, 0x00, 0x00, 0xc0, 0x03, 0xe0, 0x04, 0xe0, 0x04, 0xe0, 0x0f,
   0xc0, 0x07, 0x80, 0x01, 0x80, 0x01, 0x00, 0x00, 0x00, 0x00, 0x00, 0x00,
   0x00, 0x00, 0x10, 0x00, 0x00, 0x00, 0x00, 0x00 };
