#define poppetje_width 16
#define poppetje_height 16
static unsigned char poppetje_bits[] = {
   0xf8, 0x1f, 0xf8, 0x1f, 0x18, 0x18, 0x08, 0x10, 0x28, 0x12, 0x48, 0x10,
   0x18, 0x19, 0xf0, 0x0f, 0x40, 0x02, 0x7c, 0x3e, 0xfe, 0x7f, 0xae, 0x7a,
   0x7e, 0x7b, 0x58, 0x1d, 0xc8, 0x13, 0x7d, 0xb2 };
