#define rand_width 16
#define rand_height 16
static unsigned char rand_bits[] = {
   0x00, 0x00, 0xf0, 0x0f, 0x18, 0x18, 0x68, 0x16, 0x68, 0x16, 0x08, 0x10,
   0x18, 0x18, 0xf0, 0x0f, 0x40, 0x02, 0x7c, 0x3e, 0x06, 0x60, 0x02, 0x40,
   0x0e, 0x70, 0x08, 0x10, 0xc8, 0x13, 0x78, 0x1e };
