#define rood_width 16
#define rood_height 16
static unsigned char rood_bits[] = {
   0x10, 0x08, 0x10, 0x08, 0x10, 0x08, 0x10, 0x08, 0x10, 0x08, 0x10, 0x08,
   0x10, 0x08, 0x10, 0x08, 0x10, 0x08, 0x10, 0x08, 0x10, 0x08, 0x10, 0x08,
   0x10, 0x08, 0x10, 0x08, 0x10, 0x08, 0x10, 0x08 };
