#define rand_width 16
#define rand_height 16
static unsigned char rand_bits[] = {
   0x38, 0x18, 0x7c, 0x3c, 0xc2, 0x66, 0x81, 0xc3, 0x01, 0x80, 0x01, 0x80,
   0x01, 0x80, 0x01, 0xc0, 0x06, 0x60, 0x0c, 0x30, 0x18, 0x18, 0x18, 0x0c,
   0x30, 0x06, 0x60, 0x03, 0xc0, 0x03, 0x80, 0x01 };
