#define rood_width 16
#define rood_height 16
static unsigned char rood_bits[] = {
   0x00, 0x00, 0x00, 0x00, 0x3c, 0x18, 0x62, 0x3c, 0xf2, 0x7f, 0xfe, 0x7f,
   0xfe, 0x7f, 0xf2, 0x3f, 0xf8, 0x1f, 0xf0, 0x0f, 0xe0, 0x07, 0xe0, 0x03,
   0xc0, 0x01, 0x80, 0x00, 0x00, 0x00, 0x00, 0x00 };
