#define donkeroranje_width 16
#define donkeroranje_height 16
static unsigned char donkeroranje_bits[] = {
   0x00, 0x00, 0x00, 0x00, 0x00, 0x00, 0x00, 0x00, 0x00, 0x00, 0xf8, 0xff,
   0x04, 0x00, 0x02, 0x00, 0x02, 0x00, 0x04, 0x00, 0xf8, 0xff, 0x00, 0x00,
   0x00, 0x00, 0x00, 0x00, 0x00, 0x00, 0x00, 0x00 };
