#define huid_width 16
#define huid_height 16
static unsigned char huid_bits[] = {
   0x00, 0x00, 0x00, 0x00, 0xc0, 0x03, 0x20, 0x07, 0x20, 0x07, 0xf0, 0x07,
   0xe0, 0x03, 0x80, 0x01, 0x80, 0x01, 0x00, 0x00, 0x00, 0x00, 0x00, 0x00,
   0x00, 0x00, 0x00, 0x08, 0x00, 0x00, 0x00, 0x00 };
