#define rood_width 16
#define rood_height 16
static unsigned char rood_bits[] = {
   0xe0, 0x07, 0x10, 0x08, 0x00, 0x00, 0x00, 0x00, 0x00, 0x00, 0x00, 0x00,
   0x00, 0x00, 0x00, 0x00, 0x00, 0x00, 0x80, 0x03, 0x80, 0x07, 0x80, 0x05,
   0x80, 0x01, 0x80, 0x01, 0x00, 0x08, 0x00, 0x00 };
