#define zwart_width 16
#define zwart_height 16
static unsigned char zwart_bits[] = {
   0x00, 0x00, 0xe0, 0x07, 0x30, 0x0c, 0x10, 0x08, 0x98, 0x08, 0x08, 0x08,
   0x10, 0x0c, 0x60, 0x06, 0x40, 0x02, 0x40, 0x04, 0x40, 0x08, 0x40, 0x0a,
   0x40, 0x0e, 0x40, 0x02, 0x40, 0x02, 0xc0, 0x02 };
