#define lichtoranje_width 17
#define lichtoranje_height 5
static unsigned char lichtoranje_bits[] = {
   0xff, 0xff, 0x01, 0x00, 0x00, 0x00, 0x00, 0x00, 0x00, 0x00, 0x00, 0x00,
   0xff, 0xff, 0x01 };
